<svg xmlns:xlink="http://www.w3.org/1999/xlink" xmlns="http://www.w3.org/2000/svg" class="css-ze2te4 css-qd6ojx" viewBox="0 0 72 72" width="110" height="110">
  <g transform="translate(-4.838614066801266, -4.760660078876746) scale(0.9064471078206313)" class="css-11qj4zq" fill="#C5CAE9">
    <g xmlns="http://www.w3.org/2000/svg" fill="#C5CAE9">
      <g fill="#C5CAE9">
        <path d="M46.915,21.042c7.449,2.443,14.02,6.804,19.166,12.485c0.848-0.759,1.853-1.204,2.935-1.204    c0.318,0,0.628,0.046,0.93,0.119c1.905-5.317,2.582-11.045,1.712-16.869c-0.005-0.036-0.015-0.07-0.02-0.106    c-3.477-3.134-7.51-5.66-11.934-7.418C54.98,11.556,50.639,15.925,46.915,21.042z" fill="#C5CAE9"></path>
        <path d="M28.904,19.037c1.362-0.128,2.736-0.217,4.132-0.217c3.538,0,6.975,0.42,10.273,1.2    c3.812-5.188,8.263-9.599,13.099-13.112C52.811,5.834,49,5.252,45.053,5.252c-4.599,0-9.012,0.791-13.12,2.229    c-2.207,2.988-4.031,6.27-5.442,9.764C27.532,17.608,28.382,18.227,28.904,19.037z" fill="#C5CAE9"></path>
        <path d="M24.491,25.975c-0.186,0.044-0.371,0.08-0.555,0.11c-0.442,2.506-0.686,5.08-0.686,7.713    c0,7.583,1.928,14.706,5.286,20.945c0.724-0.094,1.476-0.094,2.236-0.01c0.404-7.833,2.356-15.948,6.043-23.786    c1.181-2.512,2.503-4.9,3.937-7.169c-3.191-0.727-6.513-1.111-9.926-1.111c-0.611,0-1.214,0.035-1.819,0.062    C28.246,24.214,26.596,25.474,24.491,25.975z" fill="#C5CAE9"></path>
        <path d="M44.387,24.787c-1.376,2.2-2.65,4.51-3.791,6.937C36.844,39.7,34.895,47.96,34.542,55.92    c1.455,0.791,2.627,1.886,3.45,3.135c10.846-2.31,19.98-8.167,26.049-15.942c-0.311-0.96-0.488-2.023-0.488-3.145    c0-0.909,0.12-1.778,0.327-2.586C58.658,31.616,51.971,27.211,44.387,24.787z" fill="#C5CAE9"></path>
        <path d="M22.531,59.003c0.47-1.112,1.226-2.028,2.162-2.733c-3.34-6.229-5.248-13.341-5.248-20.904    c0-3.264,0.39-6.432,1.065-9.493c-0.887-0.286-1.643-0.754-2.189-1.367c-3.298,0.964-6.444,2.282-9.379,3.936    c-2.307,5.033-3.604,10.627-3.604,16.526c0,3.39,0.427,6.679,1.226,9.819c4.722,2.561,10.047,4.277,15.701,4.977    C22.338,59.508,22.425,59.254,22.531,59.003z" fill="#C5CAE9"></path>
        <path d="M69.016,47.611c-0.785,0-1.531-0.235-2.205-0.653c-6.287,8.214-15.97,14.346-27.487,16.491    c-0.018,0.825-0.177,1.648-0.51,2.437c-0.165,0.389-0.372,0.749-0.601,1.092c7.665,6.794,17.687,10.978,28.696,11.146    c3.142-2.075,5.97-4.585,8.4-7.443c0.086-1.118,0.146-2.244,0.146-3.385c0-7.215-1.748-14.009-4.792-20.038    C70.143,47.486,69.59,47.611,69.016,47.611z" fill="#C5CAE9"></path>
        <path d="M35.538,69.516c1.102,5.429,3.034,10.499,5.73,14.982c1.247,0.117,2.508,0.185,3.786,0.185    c6.996,0,13.564-1.815,19.273-4.99c-0.181,0.002-0.358,0.017-0.538,0.017C53.046,79.709,43.209,75.874,35.538,69.516z" fill="#C5CAE9"></path>
        <path d="M27.726,69.419c-2.803-1.184-4.761-3.441-5.446-5.906c-5.334-0.966-10.326-2.846-14.733-5.483    c4.615,13.251,16.048,23.304,30.098,25.956c-2.532-4.14-4.393-8.798-5.554-13.777C30.672,70.278,29.176,70.032,27.726,69.419z" fill="#C5CAE9"></path>
        <path d="M22.377,17.097c0.373-0.089,0.744-0.147,1.11-0.183c1.285-2.793,2.84-5.435,4.65-7.882    c-7.197,3.394-13.207,8.884-17.247,15.686c2.082-1.193,4.273-2.213,6.547-3.064C17.716,19.635,19.673,17.741,22.377,17.097z" fill="#C5CAE9"></path>
        <path d="M84.769,44.968c0-10.614-4.172-20.248-10.955-27.373c0.149,0.699,0.28,1.406,0.387,2.122    c0.775,5.192,0.319,10.309-1.138,15.127c0.877,1.356,1.417,3.15,1.417,5.124c0,1.691-0.397,3.249-1.062,4.515    c2.711,5.758,4.245,12.18,4.245,18.967c0,1.522-0.085,3.023-0.234,4.507C82.044,61.467,84.769,53.538,84.769,44.968z" fill="#C5CAE9"></path>
      </g>
      <ellipse transform="matrix(0.9211 0.3894 -0.3894 0.9211 26.735 -7.0147)" cx="30.672" cy="62.446" rx="4.609" ry="3.947" fill="#C5CAE9"></ellipse>
      <ellipse cx="69.016" cy="39.967" rx="2.314" ry="3.239" fill="#C5CAE9"></ellipse>
      <ellipse transform="matrix(0.9727 -0.2319 0.2319 0.9727 -4.3556 6.0223)" cx="23.434" cy="21.535" rx="2.598" ry="1.942" fill="#C5CAE9"></ellipse>
    </g>
  </g>
</svg>