<svg xmlns:xlink="http://www.w3.org/1999/xlink" xmlns="http://www.w3.org/2000/svg" width="328" height="80" viewBox="0 0 328 80" class="css-1j8o68f">
  <defs id="SvgjsDefs5238"></defs>
  <g id="SvgjsG5239" featurekey="symbolFeature-0" transform="matrix(0.9064471078206313,0,0,0.9064471078206313,-4.838614066801266,-0.7606600788767457)" fill="#C5CAE9">
    <g xmlns="http://www.w3.org/2000/svg" fill="#C5CAE9">
      <g fill="#C5CAE9">
        <path d="M46.915,21.042c7.449,2.443,14.02,6.804,19.166,12.485c0.848-0.759,1.853-1.204,2.935-1.204    c0.318,0,0.628,0.046,0.93,0.119c1.905-5.317,2.582-11.045,1.712-16.869c-0.005-0.036-0.015-0.07-0.02-0.106    c-3.477-3.134-7.51-5.66-11.934-7.418C54.98,11.556,50.639,15.925,46.915,21.042z" fill="#C5CAE9"></path>
        <path d="M28.904,19.037c1.362-0.128,2.736-0.217,4.132-0.217c3.538,0,6.975,0.42,10.273,1.2    c3.812-5.188,8.263-9.599,13.099-13.112C52.811,5.834,49,5.252,45.053,5.252c-4.599,0-9.012,0.791-13.12,2.229    c-2.207,2.988-4.031,6.27-5.442,9.764C27.532,17.608,28.382,18.227,28.904,19.037z" fill="#C5CAE9"></path>
        <path d="M24.491,25.975c-0.186,0.044-0.371,0.08-0.555,0.11c-0.442,2.506-0.686,5.08-0.686,7.713    c0,7.583,1.928,14.706,5.286,20.945c0.724-0.094,1.476-0.094,2.236-0.01c0.404-7.833,2.356-15.948,6.043-23.786    c1.181-2.512,2.503-4.9,3.937-7.169c-3.191-0.727-6.513-1.111-9.926-1.111c-0.611,0-1.214,0.035-1.819,0.062    C28.246,24.214,26.596,25.474,24.491,25.975z" fill="#C5CAE9"></path>
        <path d="M44.387,24.787c-1.376,2.2-2.65,4.51-3.791,6.937C36.844,39.7,34.895,47.96,34.542,55.92    c1.455,0.791,2.627,1.886,3.45,3.135c10.846-2.31,19.98-8.167,26.049-15.942c-0.311-0.96-0.488-2.023-0.488-3.145    c0-0.909,0.12-1.778,0.327-2.586C58.658,31.616,51.971,27.211,44.387,24.787z" fill="#C5CAE9"></path>
        <path d="M22.531,59.003c0.47-1.112,1.226-2.028,2.162-2.733c-3.34-6.229-5.248-13.341-5.248-20.904    c0-3.264,0.39-6.432,1.065-9.493c-0.887-0.286-1.643-0.754-2.189-1.367c-3.298,0.964-6.444,2.282-9.379,3.936    c-2.307,5.033-3.604,10.627-3.604,16.526c0,3.39,0.427,6.679,1.226,9.819c4.722,2.561,10.047,4.277,15.701,4.977    C22.338,59.508,22.425,59.254,22.531,59.003z" fill="#C5CAE9"></path>
        <path d="M69.016,47.611c-0.785,0-1.531-0.235-2.205-0.653c-6.287,8.214-15.97,14.346-27.487,16.491    c-0.018,0.825-0.177,1.648-0.51,2.437c-0.165,0.389-0.372,0.749-0.601,1.092c7.665,6.794,17.687,10.978,28.696,11.146    c3.142-2.075,5.97-4.585,8.4-7.443c0.086-1.118,0.146-2.244,0.146-3.385c0-7.215-1.748-14.009-4.792-20.038    C70.143,47.486,69.59,47.611,69.016,47.611z" fill="#C5CAE9"></path>
        <path d="M35.538,69.516c1.102,5.429,3.034,10.499,5.73,14.982c1.247,0.117,2.508,0.185,3.786,0.185    c6.996,0,13.564-1.815,19.273-4.99c-0.181,0.002-0.358,0.017-0.538,0.017C53.046,79.709,43.209,75.874,35.538,69.516z" fill="#C5CAE9"></path>
        <path d="M27.726,69.419c-2.803-1.184-4.761-3.441-5.446-5.906c-5.334-0.966-10.326-2.846-14.733-5.483    c4.615,13.251,16.048,23.304,30.098,25.956c-2.532-4.14-4.393-8.798-5.554-13.777C30.672,70.278,29.176,70.032,27.726,69.419z" fill="#C5CAE9"></path>
        <path d="M22.377,17.097c0.373-0.089,0.744-0.147,1.11-0.183c1.285-2.793,2.84-5.435,4.65-7.882    c-7.197,3.394-13.207,8.884-17.247,15.686c2.082-1.193,4.273-2.213,6.547-3.064C17.716,19.635,19.673,17.741,22.377,17.097z" fill="#C5CAE9"></path>
        <path d="M84.769,44.968c0-10.614-4.172-20.248-10.955-27.373c0.149,0.699,0.28,1.406,0.387,2.122    c0.775,5.192,0.319,10.309-1.138,15.127c0.877,1.356,1.417,3.15,1.417,5.124c0,1.691-0.397,3.249-1.062,4.515    c2.711,5.758,4.245,12.18,4.245,18.967c0,1.522-0.085,3.023-0.234,4.507C82.044,61.467,84.769,53.538,84.769,44.968z" fill="#C5CAE9"></path>
      </g>
      <ellipse transform="matrix(0.9211 0.3894 -0.3894 0.9211 26.735 -7.0147)" cx="30.672" cy="62.446" rx="4.609" ry="3.947" fill="#C5CAE9"></ellipse>
      <ellipse cx="69.016" cy="39.967" rx="2.314" ry="3.239" fill="#C5CAE9"></ellipse>
      <ellipse transform="matrix(0.9727 -0.2319 0.2319 0.9727 -4.3556 6.0223)" cx="23.434" cy="21.535" rx="2.598" ry="1.942" fill="#C5CAE9"></ellipse>
    </g>
  </g>
  <g id="SvgjsG5240" featurekey="textGroupContainer" transform="matrix(1,0,0,1,327,0)" fill="#FFFFFF">
    <rect xmlns="http://www.w3.org/2000/svg" y="0" height="1" width="1" opacity="0" fill="#FFFFFF">
    </rect>
    <rect xmlns="http://www.w3.org/2000/svg" y="0" x="-235" width="3" height="80" fill="#FFFFFF">
    </rect>
  </g>
  <g id="SvgjsG5241" featurekey="nameFeature-0" transform="matrix(0.8719598373723588,0,0,0.8719598373723588,108.08547713743152,9.83294926085451)" fill="#C5CAE9">
    <path d="M12.38 23.06 c5.26 0.98 10.8 2.82 10.8 8.96 c0 5.98 -3.6 8.58 -10.66 8.58 c-6.58 0 -9.82 -2.24 -10.32 -7.84 c-0.04 -0.4 0.2 -0.66 0.56 -0.66 l4.82 0 c0.36 0 0.5 0.22 0.6 0.54 c0.52 1.44 1.8 2.14 4.34 2.14 c2.68 0 4.34 -0.76 4.34 -2.54 c0 -1.86 -0.6 -2.86 -4.48 -3.62 c-4.96 -0.98 -9.76 -3.04 -9.76 -8.68 c0 -5.16 3.14 -8.28 9.76 -8.28 c5.9 0 9.42 2.18 9.96 7.58 c0.04 0.4 -0.2 0.72 -0.56 0.72 l-4.46 0 c-0.36 0 -0.5 -0.28 -0.6 -0.6 c-0.38 -1.16 -1.64 -1.94 -4.24 -1.94 c-2.38 0 -3.58 1.04 -3.58 2.52 c0 1.2 -0.08 2.44 3.48 3.12 z M52.192 32.04 l3.24 3.5 c0.24 0.28 0.3 0.56 0.02 0.84 c-2.44 2.5 -6.02 4.14 -9.92 4.14 c-8.02 0 -14.52 -6.34 -14.52 -14.4 c0 -8.1 6.5 -14.44 14.52 -14.44 c3.9 0 7.48 1.6 9.92 4.14 c0.28 0.3 0.22 0.56 -0.02 0.84 l-3.24 3.5 c-0.22 0.28 -0.56 0.28 -0.84 0.04 c-1.54 -1.32 -3.48 -2.18 -5.88 -2.18 c-4.36 0 -7.78 3.48 -7.78 8.1 c0 4.58 3.42 8.06 7.78 8.06 c2.4 0 4.34 -0.86 5.88 -2.18 c0.28 -0.24 0.62 -0.24 0.84 0.04 z M83.604 17.68 l-6.34 0 l0 16.64 l6.34 0 c0.36 0 0.6 0.24 0.6 0.6 l0 4.48 c0 0.36 -0.24 0.6 -0.6 0.6 l-19.14 0 c-0.36 0 -0.6 -0.24 -0.6 -0.6 l0 -4.48 c0 -0.36 0.24 -0.6 0.6 -0.6 l6.34 0 l0 -16.64 l-6.34 0 c-0.36 0 -0.6 -0.24 -0.6 -0.6 l0 -4.48 c0 -0.36 0.24 -0.6 0.6 -0.6 l19.14 0 c0.36 0 0.6 0.24 0.6 0.6 l0 4.48 c0 0.36 -0.24 0.6 -0.6 0.6 z M113.576 12 c0.36 0 0.6 0.24 0.6 0.6 l0 4.48 c0 0.36 -0.24 0.6 -0.6 0.6 l-7.24 0 l0 21.72 c0 0.36 -0.24 0.6 -0.6 0.6 l-5.26 0 c-0.36 0 -0.6 -0.24 -0.6 -0.6 l0 -21.72 l-7.24 0 c-0.36 0 -0.6 -0.24 -0.6 -0.6 l0 -4.48 c0 -0.36 0.24 -0.6 0.6 -0.6 l20.94 0 z M141.748 17.68 l-6.34 0 l0 16.64 l6.34 0 c0.36 0 0.6 0.24 0.6 0.6 l0 4.48 c0 0.36 -0.24 0.6 -0.6 0.6 l-19.14 0 c-0.36 0 -0.6 -0.24 -0.6 -0.6 l0 -4.48 c0 -0.36 0.24 -0.6 0.6 -0.6 l6.34 0 l0 -16.64 l-6.34 0 c-0.36 0 -0.6 -0.24 -0.6 -0.6 l0 -4.48 c0 -0.36 0.24 -0.6 0.6 -0.6 l19.14 0 c0.36 0 0.6 0.24 0.6 0.6 l0 4.48 c0 0.36 -0.24 0.6 -0.6 0.6 z M170.42000000000002 34.32 c0.36 0 0.6 0.24 0.6 0.6 l0 4.48 c0 0.36 -0.24 0.6 -0.6 0.6 l-18.54 0 c-0.36 0 -0.6 -0.24 -0.6 -0.6 l0 -4.68 c0 -0.28 0.08 -0.48 0.24 -0.72 l12.12 -16.32 l-11.36 0 c-0.36 0 -0.6 -0.24 -0.6 -0.6 l0 -4.48 c0 -0.36 0.24 -0.6 0.6 -0.6 l17.74 0 c0.36 0 0.6 0.24 0.6 0.6 l0 4.68 c0 0.28 -0.08 0.48 -0.24 0.72 l-12.12 16.32 l12.16 0 z M198.59199999999998 34.32 c0.36 0 0.6 0.24 0.6 0.6 l0 4.48 c0 0.36 -0.24 0.6 -0.6 0.6 l-17.54 0 c-0.36 0 -0.6 -0.24 -0.6 -0.6 l0 -26.8 c0 -0.36 0.24 -0.6 0.6 -0.6 l17.5 0 c0.36 0 0.6 0.24 0.6 0.6 l0 4.48 c0 0.36 -0.24 0.6 -0.6 0.6 l-11.64 0 l0 5.38 l10.66 0 c0.36 0 0.6 0.24 0.6 0.6 l0 4.48 c0 0.36 -0.24 0.6 -0.6 0.6 l-10.66 0 l0 5.58 l11.68 0 z M230.96399999999997 12 c0.36 0 0.6 0.24 0.6 0.6 l0 26.8 c0 0.36 -0.24 0.6 -0.6 0.6 l-5.92 0 c-0.32 0 -0.56 -0.12 -0.72 -0.4 l-9.54 -17.14 l0 16.94 c0 0.36 -0.24 0.6 -0.6 0.6 l-5.26 0 c-0.36 0 -0.6 -0.24 -0.6 -0.6 l0 -26.8 c0 -0.36 0.24 -0.6 0.6 -0.6 l5.9 0 c0.32 0 0.56 0.12 0.72 0.4 l9.54 17.12 l0 -16.92 c0 -0.36 0.24 -0.6 0.6 -0.6 l5.28 0 z" fill="#C5CAE9"></path>
  </g>
  <g id="SvgjsG5242" featurekey="sloganFeature-0" transform="matrix(0.31842726008662536,0,0,0.31842726008662536,109.4586737945069,53.143569249826996)" fill="#FFFFFF">
    <path d="M13.22 6 c0.18 0 0.3 0.12 0.3 0.3 l0 13.4 c0 0.18 -0.12 0.3 -0.3 0.3 l-2.64 0 c-0.18 0 -0.3 -0.12 -0.3 -0.3 l0 -5.33 l-5.35 0 l0 5.33 c0 0.18 -0.12 0.3 -0.3 0.3 l-2.63 0 c-0.18 0 -0.3 -0.12 -0.3 -0.3 l0 -13.4 c0 -0.18 0.12 -0.3 0.3 -0.3 l2.63 0 c0.18 0 0.3 0.12 0.3 0.3 l0 5.23 l5.35 0 l0 -5.23 c0 -0.18 0.12 -0.3 0.3 -0.3 l2.64 0 z M32.054 17.16 c0.18 0 0.3 0.12 0.3 0.3 l0 2.24 c0 0.18 -0.12 0.3 -0.3 0.3 l-8.77 0 c-0.18 0 -0.3 -0.12 -0.3 -0.3 l0 -13.4 c0 -0.18 0.12 -0.3 0.3 -0.3 l8.75 0 c0.18 0 0.3 0.12 0.3 0.3 l0 2.24 c0 0.18 -0.12 0.3 -0.3 0.3 l-5.82 0 l0 2.69 l5.33 0 c0.18 0 0.3 0.12 0.3 0.3 l0 2.24 c0 0.18 -0.12 0.3 -0.3 0.3 l-5.33 0 l0 2.79 l5.84 0 z M50.438 17.16 c0.18 0 0.3 0.12 0.3 0.3 l0 2.24 c0 0.18 -0.12 0.3 -0.3 0.3 l-8.67 0 c-0.18 0 -0.3 -0.12 -0.3 -0.3 l0 -13.4 c0 -0.18 0.12 -0.3 0.3 -0.3 l2.63 0 c0.18 0 0.3 0.12 0.3 0.3 l0 10.86 l5.74 0 z M64.732 6 c4.41 0 5.73 1.57 5.73 4.72 c0 3.16 -1.32 4.73 -5.73 4.73 l-2 0 l0 4.25 c0 0.18 -0.12 0.3 -0.3 0.3 l-2.63 0 c-0.18 0 -0.3 -0.12 -0.3 -0.3 l0 -13.4 c0 -0.18 0.12 -0.3 0.3 -0.3 l4.93 0 z M64.962 12.61 c1.59 0 2.41 -0.34 2.41 -1.89 c0 -1.53 -0.82 -1.88 -2.41 -1.88 l-2.23 0 l0 3.77 l2.23 0 z M88.79599999999999 8.84 l-3.17 0 l0 8.32 l3.17 0 c0.18 0 0.3 0.12 0.3 0.3 l0 2.24 c0 0.18 -0.12 0.3 -0.3 0.3 l-9.57 0 c-0.18 0 -0.3 -0.12 -0.3 -0.3 l0 -2.24 c0 -0.18 0.12 -0.3 0.3 -0.3 l3.17 0 l0 -8.32 l-3.17 0 c-0.18 0 -0.3 -0.12 -0.3 -0.3 l0 -2.24 c0 -0.18 0.12 -0.3 0.3 -0.3 l9.57 0 c0.18 0 0.3 0.12 0.3 0.3 l0 2.24 c0 0.18 -0.12 0.3 -0.3 0.3 z M109.63 6 c0.18 0 0.3 0.12 0.3 0.3 l0 13.4 c0 0.18 -0.12 0.3 -0.3 0.3 l-2.96 0 c-0.16 0 -0.28 -0.06 -0.36 -0.2 l-4.77 -8.57 l0 8.47 c0 0.18 -0.12 0.3 -0.3 0.3 l-2.63 0 c-0.18 0 -0.3 -0.12 -0.3 -0.3 l0 -13.4 c0 -0.18 0.12 -0.3 0.3 -0.3 l2.95 0 c0.16 0 0.28 0.06 0.36 0.2 l4.77 8.56 l0 -8.46 c0 -0.18 0.12 -0.3 0.3 -0.3 l2.64 0 z M132.314 11.94 c0.18 0 0.3 0.12 0.3 0.3 l0 1.43 c0 3.58 -2.31 6.59 -6.29 6.59 c-4.01 0 -7.33 -3.22 -7.33 -7.23 c0 -4.02 3.25 -7.19 7.26 -7.19 c1.95 0 3.74 0.8 4.96 2.07 c0.14 0.15 0.11 0.28 -0.01 0.42 l-1.62 1.75 c-0.11 0.14 -0.28 0.14 -0.42 0.02 c-0.77 -0.66 -1.74 -1.09 -2.94 -1.09 c-2.18 0 -3.89 1.74 -3.89 4.02 s1.61 4.06 3.96 4.06 c2.05 0 3.07 -1.19 3.13 -2.47 l-3.04 0 c-0.18 0 -0.3 -0.12 -0.3 -0.3 l0 -2.08 c0 -0.18 0.12 -0.3 0.3 -0.3 l5.93 0 z M167.062 6 c0.18 0 0.3 0.12 0.3 0.3 l0 13.4 c0 0.18 -0.12 0.3 -0.3 0.3 l-2.64 0 c-0.18 0 -0.3 -0.12 -0.3 -0.3 l0 -5.33 l-5.35 0 l0 5.33 c0 0.18 -0.12 0.3 -0.3 0.3 l-2.63 0 c-0.18 0 -0.3 -0.12 -0.3 -0.3 l0 -13.4 c0 -0.18 0.12 -0.3 0.3 -0.3 l2.63 0 c0.18 0 0.3 0.12 0.3 0.3 l0 5.23 l5.35 0 l0 -5.23 c0 -0.18 0.12 -0.3 0.3 -0.3 l2.64 0 z M188.056 6 c0.18 0 0.3 0.12 0.3 0.3 l0 8.03 c0 4.09 -2.48 5.96 -5.94 5.96 c-3.44 0 -5.94 -1.87 -5.94 -5.96 l0 -8.03 c0 -0.18 0.12 -0.3 0.3 -0.3 l2.63 0 c0.18 0 0.3 0.12 0.3 0.3 l0 8.03 c0 1.75 1.02 2.85 2.71 2.85 c1.71 0 2.7 -1.1 2.7 -2.85 l0 -8.03 c0 -0.18 0.12 -0.3 0.3 -0.3 l2.64 0 z M212.01000000000002 6 c0.18 0 0.3 0.12 0.3 0.3 l0 13.4 c0 0.18 -0.12 0.3 -0.3 0.3 l-2.63 0 c-0.18 0 -0.3 -0.12 -0.3 -0.3 l0 -6.64 l-2.64 6.69 c-0.06 0.16 -0.2 0.25 -0.36 0.25 l-2.36 0 c-0.16 0 -0.31 -0.09 -0.37 -0.25 l-2.65 -6.72 l0 6.67 c0 0.18 -0.12 0.3 -0.3 0.3 l-2.63 0 c-0.18 0 -0.3 -0.12 -0.3 -0.3 l0 -13.4 c0 -0.18 0.12 -0.3 0.3 -0.3 l2.95 0 c0.16 0 0.3 0.06 0.36 0.2 l3.82 10.06 l3.81 -10.06 c0.06 -0.14 0.2 -0.2 0.36 -0.2 l2.94 0 z M233.78400000000002 19.66 c0.07 0.2 -0.02 0.34 -0.24 0.34 l-2.74 0 c-0.16 0 -0.28 -0.06 -0.34 -0.24 l-0.64 -1.94 l-5.01 0 l-0.64 1.94 c-0.05 0.18 -0.18 0.24 -0.34 0.24 l-2.74 0 c-0.22 0 -0.31 -0.14 -0.24 -0.34 l4.9 -13.42 c0.06 -0.16 0.18 -0.24 0.34 -0.24 l2.4 0 c0.16 0 0.33 0.08 0.39 0.24 z M225.72400000000002 15.09 l3.2 0 l-1.6 -4.84 z M253.64800000000002 6 c0.18 0 0.3 0.12 0.3 0.3 l0 13.4 c0 0.18 -0.12 0.3 -0.3 0.3 l-2.96 0 c-0.16 0 -0.28 -0.06 -0.36 -0.2 l-4.77 -8.57 l0 8.47 c0 0.18 -0.12 0.3 -0.3 0.3 l-2.63 0 c-0.18 0 -0.3 -0.12 -0.3 -0.3 l0 -13.4 c0 -0.18 0.12 -0.3 0.3 -0.3 l2.95 0 c0.16 0 0.28 0.06 0.36 0.2 l4.77 8.56 l0 -8.46 c0 -0.18 0.12 -0.3 0.3 -0.3 l2.64 0 z M273.032 8.84 l-3.17 0 l0 8.32 l3.17 0 c0.18 0 0.3 0.12 0.3 0.3 l0 2.24 c0 0.18 -0.12 0.3 -0.3 0.3 l-9.57 0 c-0.18 0 -0.3 -0.12 -0.3 -0.3 l0 -2.24 c0 -0.18 0.12 -0.3 0.3 -0.3 l3.17 0 l0 -8.32 l-3.17 0 c-0.18 0 -0.3 -0.12 -0.3 -0.3 l0 -2.24 c0 -0.18 0.12 -0.3 0.3 -0.3 l9.57 0 c0.18 0 0.3 0.12 0.3 0.3 l0 2.24 c0 0.18 -0.12 0.3 -0.3 0.3 z M292.56600000000003 6 c0.18 0 0.3 0.12 0.3 0.3 l0 2.24 c0 0.18 -0.12 0.3 -0.3 0.3 l-3.62 0 l0 10.86 c0 0.18 -0.12 0.3 -0.3 0.3 l-2.63 0 c-0.18 0 -0.3 -0.12 -0.3 -0.3 l0 -10.86 l-3.62 0 c-0.18 0 -0.3 -0.12 -0.3 -0.3 l0 -2.24 c0 -0.18 0.12 -0.3 0.3 -0.3 l10.47 0 z M313.65999999999997 6 c0.24 0 0.33 0.13 0.2 0.36 l-5.01 8.22 l0 5.12 c0 0.18 -0.12 0.3 -0.3 0.3 l-2.63 0 c-0.18 0 -0.3 -0.12 -0.3 -0.3 l0 -5.16 l-5.02 -8.18 c-0.14 -0.23 -0.04 -0.36 0.2 -0.36 l2.97 0 c0.16 0 0.27 0.06 0.36 0.2 l3.1 5.16 l3.11 -5.16 c0.09 -0.14 0.2 -0.2 0.36 -0.2 l2.96 0 z M350.738 6 c0.18 0 0.3 0.12 0.3 0.3 l0 13.4 c0 0.18 -0.12 0.3 -0.3 0.3 l-2.63 0 c-0.18 0 -0.3 -0.12 -0.3 -0.3 l0 -6.64 l-2.64 6.69 c-0.06 0.16 -0.2 0.25 -0.36 0.25 l-2.36 0 c-0.16 0 -0.31 -0.09 -0.37 -0.25 l-2.65 -6.72 l0 6.67 c0 0.18 -0.12 0.3 -0.3 0.3 l-2.63 0 c-0.18 0 -0.3 -0.12 -0.3 -0.3 l0 -13.4 c0 -0.18 0.12 -0.3 0.3 -0.3 l2.95 0 c0.16 0 0.3 0.06 0.36 0.2 l3.82 10.06 l3.81 -10.06 c0.06 -0.14 0.2 -0.2 0.36 -0.2 l2.94 0 z M372.512 19.66 c0.07 0.2 -0.02 0.34 -0.24 0.34 l-2.74 0 c-0.16 0 -0.28 -0.06 -0.34 -0.24 l-0.64 -1.94 l-5.01 0 l-0.64 1.94 c-0.05 0.18 -0.18 0.24 -0.34 0.24 l-2.74 0 c-0.22 0 -0.31 -0.14 -0.24 -0.34 l4.9 -13.42 c0.06 -0.16 0.18 -0.24 0.34 -0.24 l2.4 0 c0.16 0 0.33 0.08 0.39 0.24 z M364.452 15.09 l3.2 0 l-1.6 -4.84 z M385.626 6 c4.78 0 7.35 3.12 7.35 7 s-2.57 7 -7.35 7 l-4.27 0 c-0.18 0 -0.3 -0.12 -0.3 -0.3 l0 -13.4 c0 -0.18 0.12 -0.3 0.3 -0.3 l4.27 0 z M385.626 17.16 c2.71 0 4.07 -1.5 4.07 -4.16 s-1.36 -4.16 -4.07 -4.16 l-1.34 0 l0 8.32 l1.34 0 z M410.76 17.16 c0.18 0 0.3 0.12 0.3 0.3 l0 2.24 c0 0.18 -0.12 0.3 -0.3 0.3 l-8.77 0 c-0.18 0 -0.3 -0.12 -0.3 -0.3 l0 -13.4 c0 -0.18 0.12 -0.3 0.3 -0.3 l8.75 0 c0.18 0 0.3 0.12 0.3 0.3 l0 2.24 c0 0.18 -0.12 0.3 -0.3 0.3 l-5.82 0 l0 2.69 l5.33 0 c0.18 0 0.3 0.12 0.3 0.3 l0 2.24 c0 0.18 -0.12 0.3 -0.3 0.3 l-5.33 0 l0 2.79 l5.84 0 z M443.10799999999995 17.16 c0.18 0 0.3 0.12 0.3 0.3 l0 2.24 c0 0.18 -0.12 0.3 -0.3 0.3 l-8.77 0 c-0.18 0 -0.3 -0.12 -0.3 -0.3 l0 -13.4 c0 -0.18 0.12 -0.3 0.3 -0.3 l8.75 0 c0.18 0 0.3 0.12 0.3 0.3 l0 2.24 c0 0.18 -0.12 0.3 -0.3 0.3 l-5.82 0 l0 2.69 l5.33 0 c0.18 0 0.3 0.12 0.3 0.3 l0 2.24 c0 0.18 -0.12 0.3 -0.3 0.3 l-5.33 0 l0 2.79 l5.84 0 z M464.5319999999999 19.66 c0.07 0.2 -0.02 0.34 -0.24 0.34 l-2.74 0 c-0.16 0 -0.28 -0.06 -0.34 -0.24 l-0.64 -1.94 l-5.01 0 l-0.64 1.94 c-0.05 0.18 -0.18 0.24 -0.34 0.24 l-2.74 0 c-0.22 0 -0.31 -0.14 -0.24 -0.34 l4.9 -13.42 c0.06 -0.16 0.18 -0.24 0.34 -0.24 l2.4 0 c0.16 0 0.33 0.08 0.39 0.24 z M456.4719999999999 15.09 l3.2 0 l-1.6 -4.84 z M477.566 11.53 c2.63 0.49 5.4 1.41 5.4 4.48 c0 2.99 -1.8 4.29 -5.33 4.29 c-3.29 0 -4.91 -1.12 -5.16 -3.92 c-0.02 -0.2 0.1 -0.33 0.28 -0.33 l2.41 0 c0.18 0 0.25 0.11 0.3 0.27 c0.26 0.72 0.9 1.07 2.17 1.07 c1.34 0 2.17 -0.38 2.17 -1.27 c0 -0.93 -0.3 -1.43 -2.24 -1.81 c-2.48 -0.49 -4.88 -1.52 -4.88 -4.34 c0 -2.58 1.57 -4.14 4.88 -4.14 c2.95 0 4.71 1.09 4.98 3.79 c0.02 0.2 -0.1 0.36 -0.28 0.36 l-2.23 0 c-0.18 0 -0.25 -0.14 -0.3 -0.3 c-0.19 -0.58 -0.82 -0.97 -2.12 -0.97 c-1.19 0 -1.79 0.52 -1.79 1.26 c0 0.6 -0.04 1.22 1.74 1.56 z M503.90999999999997 6 c0.24 0 0.33 0.13 0.2 0.36 l-5.01 8.22 l0 5.12 c0 0.18 -0.12 0.3 -0.3 0.3 l-2.63 0 c-0.18 0 -0.3 -0.12 -0.3 -0.3 l0 -5.16 l-5.02 -8.18 c-0.14 -0.23 -0.04 -0.36 0.2 -0.36 l2.97 0 c0.16 0 0.27 0.06 0.36 0.2 l3.1 5.16 l3.11 -5.16 c0.09 -0.14 0.2 -0.2 0.36 -0.2 l2.96 0 z" fill="#FFFFFF"></path>
  </g>
</svg>