<svg xmlns="http://www.w3.org/2000/svg" width="243" height="42" viewBox="0 0 243 42">
    <g fill="none" fill-rule="evenodd">
        <path fill="#FFF" d="M57.092 19.986c-.996.805-1.494 1.83-1.494 3.077 0 1.32.458 2.426 1.375 3.321.916.895 2.121 1.342 3.615 1.342 1.414 0 2.56-.425 3.436-1.278.876-.852 1.315-1.912 1.315-3.182 0-1.25-.439-2.315-1.315-3.194-.877-.88-2.022-1.32-3.436-1.32-1.335.019-2.5.43-3.496 1.234zM51.864 10.7h3.974v6.588h.059c.438-.578 1.02-1.025 1.748-1.342a8.64 8.64 0 0 1 2.256-.637c.2-.018.388-.031.568-.04.179-.01.358-.014.537-.014 2.43 0 4.422.805 5.976 2.413 1.554 1.609 2.33 3.47 2.33 5.585 0 .307-.02.628-.059.962-.04.335-.11.664-.21.99a8.537 8.537 0 0 1-.716 1.898 7.321 7.321 0 0 1-1.135 1.626 7.147 7.147 0 0 1-2.72 1.857 9.033 9.033 0 0 1-3.346.638c-1.135 0-2.186-.196-3.152-.584-.967-.388-1.768-1.025-2.405-1.91l-.06-.028v2.033h-3.645V10.7zM84.58 23.199c0-1.247-.443-2.3-1.33-3.16-.886-.857-2.036-1.277-3.45-1.26-1.455-.017-2.644.416-3.57 1.302-.927.886-1.39 1.989-1.39 3.307 0 1.23.483 2.264 1.45 3.104.965.84 2.116 1.253 3.45 1.234 1.435.019 2.6-.406 3.496-1.274.896-.867 1.345-1.943 1.345-3.226v-.027zm3.766 7.536H84.7v-2.033h-.06c-.498.65-1.156 1.184-1.972 1.6a8.684 8.684 0 0 1-2.54.84l-.552.055c-.19.017-.374.026-.553.026-1.275 0-2.43-.222-3.466-.664a7.57 7.57 0 0 1-2.63-1.83 7.802 7.802 0 0 1-1.523-2.494 8.297 8.297 0 0 1-.538-2.982c0-1.049.164-2.015.493-2.901.33-.885.872-1.717 1.628-2.494.837-.886 1.768-1.541 2.794-1.966 1.026-.424 2.146-.637 3.361-.637 1.136 0 2.182.222 3.138.664a6.45 6.45 0 0 1 2.42 1.939v-2.142h3.646v15.02zM91.303 30.735h3.974V10.7h-3.974zM111.022 21.626c-.318-.886-.896-1.581-1.733-2.087a5.265 5.265 0 0 0-2.778-.76h-.24a5.714 5.714 0 0 0-2.689.847c-.836.51-1.394 1.176-1.673 2h9.113zm-9.052 3.2c.298.885.85 1.59 1.657 2.114a4.858 4.858 0 0 0 2.705.786c.756 0 1.468-.117 2.135-.352.668-.236 1.191-.551 1.57-.95l4.392-.027c-.498 1.356-1.509 2.5-3.033 3.43-1.523.931-3.162 1.397-4.915 1.397-2.41 0-4.467-.764-6.17-2.291-1.703-1.527-2.555-3.385-2.555-5.572 0-2.223.847-4.13 2.54-5.72 1.693-1.59 3.775-2.386 6.245-2.386 2.37 0 4.377.789 6.02 2.366 1.643 1.576 2.466 3.41 2.466 5.5 0 .236-.016.465-.046.69-.03.225-.065.447-.104.662-.02.073-.035.137-.045.19a.887.887 0 0 0-.015.162H101.97zM117.596 15.716h3.675V17.1h.06c.457-.56 1.06-.994 1.808-1.302a7.421 7.421 0 0 1 2.345-.542h.598c.079 0 .16.01.239.027a6.948 6.948 0 0 1 2.315.57 6.38 6.38 0 0 1 1.928 1.273l.224.204c.069.063.134.14.194.23.637.814 1.016 1.682 1.135 2.603.12.922.18 1.862.18 2.82v7.753h-3.974v-7.78c0-.254-.011-.506-.03-.76a7.248 7.248 0 0 0-.21-1.152c-.1-.37-.249-.708-.448-1.017a2.757 2.757 0 0 0-1.06-.867 3.84 3.84 0 0 0-1.39-.38h-.373c-.07 0-.144.01-.224.028a3.917 3.917 0 0 0-1.345.42c-.438.226-.777.52-1.016.881a3.17 3.17 0 0 0-.448 1.017c-.1.389-.16.781-.18 1.179-.02.235-.029.47-.029.705v7.726h-3.974V15.716zM148.52 23.199c0-1.247-.443-2.3-1.33-3.16-.886-.857-2.036-1.277-3.45-1.26-1.455-.017-2.645.416-3.57 1.302-.927.886-1.39 1.989-1.39 3.307 0 1.23.483 2.264 1.449 3.104.966.84 2.116 1.253 3.451 1.234 1.434.019 2.6-.406 3.496-1.274.896-.867 1.345-1.943 1.345-3.226v-.027zm3.765 7.536h-3.645v-2.033h-.06c-.498.65-1.156 1.184-1.972 1.6a8.694 8.694 0 0 1-2.54.84l-.552.055c-.19.017-.373.026-.553.026-1.275 0-2.431-.222-3.466-.664-1.036-.443-1.913-1.053-2.63-1.83a7.793 7.793 0 0 1-1.523-2.494 8.298 8.298 0 0 1-.539-2.982c0-1.049.166-2.015.493-2.901.33-.885.872-1.717 1.63-2.494.836-.886 1.767-1.541 2.793-1.966 1.026-.424 2.146-.637 3.361-.637 1.136 0 2.182.222 3.137.664a6.45 6.45 0 0 1 2.42 1.939v-2.142h3.646v15.02z"/>
        <path fill="#A5DE37" d="M19.92 25.025v12.206a4.653 4.653 0 0 0 1.476-.528l10.119-5.807a4.785 4.785 0 0 0 2.4-4.14V15.175a4.6 4.6 0 0 0-.213-1.363l-11 6.334c-2.261 1.596-2.75 3.107-2.781 4.88"/>
        <path fill="#C8F178" d="M37.715 11.5l-4.013 2.312a4.6 4.6 0 0 1 .212 1.361v11.584c0 1.703-.92 3.29-2.4 4.14l-10.119 5.806a4.66 4.66 0 0 1-1.474.529v4.61a5.788 5.788 0 0 0 2.033-.695l13.142-7.542a5.92 5.92 0 0 0 2.967-5.119V13.444a5.73 5.73 0 0 0-.348-1.944"/>
        <path fill="#A5DE37" d="M18.998 21.189c.599-.975 1.49-1.816 2.772-2.621l11.07-6.376a4.678 4.678 0 0 0-1.325-1.158l-10.12-5.806a4.809 4.809 0 0 0-4.775.002L6.542 11.033c-.53.305-.975.716-1.342 1.184l11.02 6.346c1.288.81 2.18 1.651 2.778 2.626"/>
        <path fill="#C8F178" d="M6.542 11.033L16.62 5.23a4.808 4.808 0 0 1 4.776-.003l10.119 5.808c.522.299.961.7 1.325 1.157l4.007-2.307a5.786 5.786 0 0 0-1.752-1.56L21.954.783a5.947 5.947 0 0 0-5.906.004L2.961 8.323A5.87 5.87 0 0 0 1.195 9.91l4.004 2.306a4.686 4.686 0 0 1 1.343-1.184M16.62 36.7L6.543 30.897a4.784 4.784 0 0 1-2.394-4.136V15.17c0-.456.074-.9.2-1.326L.335 11.531A5.76 5.76 0 0 0 0 13.438v15.055a5.916 5.916 0 0 0 2.96 5.114l13.088 7.537c.62.356 1.302.585 2.028.696v-4.613a4.644 4.644 0 0 1-1.456-.527"/>
        <path fill="#A5DE37" d="M15.276 20.133L4.35 13.843c-.127.426-.201.87-.201 1.326V26.76c0 1.702.917 3.287 2.394 4.136L16.62 36.7c.458.262.95.43 1.456.525V25.022c-.032-1.77-.52-3.281-2.8-4.889M157.844 10.548h11.474v4.537h-6.299v3.143h6.107v4.536h-6.107v3.472h6.299v4.537h-11.474zM173.69 19.048h-2.246v-3.444h2.246v-5.056h4.546v5.056h2.19v3.444h-2.19v11.725h-4.546zM197.492 25.006c-.822 3.443-3.862 6.259-7.969 6.259-4.6 0-8.133-3.608-8.133-8.118 0-4.454 3.477-8.062 8.023-8.062 4.026 0 7.284 2.65 8.051 6.368h-4.6c-.493-1.038-1.397-2.132-3.286-2.132a3.265 3.265 0 0 0-2.629 1.066c-.63.71-.986 1.695-.986 2.787 0 2.214 1.451 3.854 3.615 3.854 1.889 0 2.793-1.093 3.285-2.022h4.629zM199.572 10.548h4.546v6.45c.821-1.366 2.354-1.913 3.97-1.913 2.328 0 3.697.82 4.518 2.159.822 1.312 1.04 3.116 1.04 5.056v8.473h-4.545v-8.254c0-.848-.11-1.64-.465-2.214-.384-.574-.986-.957-1.972-.957-1.26 0-1.917.575-2.218 1.23-.328.656-.328 1.394-.328 1.777v8.418h-4.546V10.548zM227.446 21.316c-.11-.71-1.04-2.405-3.395-2.405s-3.286 1.695-3.396 2.405h6.791zM220.6 24.76c.192 1.612 1.726 2.678 3.505 2.678 1.452 0 2.219-.628 2.766-1.42h4.656c-.74 1.694-1.808 3.006-3.094 3.88a7.397 7.397 0 0 1-4.328 1.367c-4.353 0-8.05-3.526-8.05-8.036 0-4.236 3.34-8.144 7.969-8.144 2.327 0 4.326.902 5.75 2.405 1.917 2.05 2.492 4.482 2.136 7.27H220.6zM234.538 15.604h4.272v1.694c.438-.819 1.232-2.213 3.861-2.213v4.564h-.165c-2.327 0-3.422.848-3.422 2.98v8.144h-4.546V15.604z"/>
    </g>
</svg>
